REM MD5 95359fe7e50aae3167535952304bd024
FILE "Official U.S. PlayStation Magazine Demo Disc 12 (USA).bin" BINARY
  TRACK 01 MODE2/2352
    INDEX 01 00:00:00
  TRACK 02 AUDIO
    INDEX 00 35:10:33
    INDEX 01 35:12:33
  TRACK 03 AUDIO
    INDEX 00 36:43:53
    INDEX 01 36:45:53
  TRACK 04 AUDIO
    INDEX 00 38:25:53
    INDEX 01 38:27:53
REM LEADOUT 38:33:49
